<svg width="22" height="36" viewBox="0 0 22 36" fill="none" xmlns="http://www.w3.org/2000/svg">
<path d="M11 4C15.5277 4 17.3388 5.5 17.3388 8.5277" stroke="#D3D3D3"/>
<path d="M7.35785 24C7.35785 18.6923 5.53688 16.9231 2.80488 13.3846C0.0728936 9.84615 0.747365 5.6527 2.80488 3.65385C4.8624 1.65499 7.35754 1 11 1" stroke="#D3D3D3" stroke-width="2"/>
<path d="M14.6422 24C14.6422 18.6923 16.4631 16.9231 19.1951 13.3846C21.9271 9.84615 21.2526 5.6527 19.1951 3.65385C17.1376 1.65499 14.6425 1 11 1" stroke="#D3D3D3" stroke-width="2"/>
<rect x="5" y="24" width="12" height="3" rx="1" fill="#D3D3D3"/>
<rect x="5" y="28" width="12" height="3" rx="1" fill="#D3D3D3"/>
<path d="M10.5939 35.8195C10.8524 35.9344 11.1476 35.9344 11.4061 35.8195L15.6939 33.9138C16.6809 33.4752 16.3679 32 15.2878 32H6.71221C5.63214 32 5.31909 33.4752 6.30608 33.9138L10.5939 35.8195Z" fill="#D3D3D3"/>
</svg>
