<svg width="36" height="36" viewBox="0 0 36 36" fill="none" xmlns="http://www.w3.org/2000/svg">
<circle cx="18" cy="18" r="11.5" stroke="#303030" stroke-width="5"/>
<rect x="15" width="6" height="7" rx="1" fill="#303030"/>
<rect x="36" y="15" width="6" height="7" rx="1" transform="rotate(90 36 15)" fill="#303030"/>
<rect x="28.6066" y="3.15076" width="6" height="6.9148" rx="1" transform="rotate(45 28.6066 3.15076)" fill="#303030"/>
<rect x="32.8492" y="28.6065" width="6" height="6.8759" rx="1" transform="rotate(135 32.8492 28.6065)" fill="#303030"/>
<rect x="7" y="15" width="6" height="7" rx="1" transform="rotate(90 7 15)" fill="#303030"/>
<rect x="8.05243" y="23.7049" width="6" height="6.93207" rx="1" transform="rotate(45 8.05243 23.7049)" fill="#303030"/>
<rect x="12.194" y="7.95131" width="6" height="6.7891" rx="1" transform="rotate(135 12.194 7.95131)" fill="#303030"/>
<rect x="15" y="29" width="6" height="7" rx="1" fill="#303030"/>
</svg>
