<svg width="39" height="39" viewBox="0 0 39 39" fill="none" xmlns="http://www.w3.org/2000/svg">
<circle cx="19.5" cy="19.5" r="8" stroke="#FCBF5F" stroke-width="3"/>
<rect x="18" width="3" height="8" rx="1" fill="#FCBF5F"/>
<rect x="4.65076" y="6.77208" width="3" height="8" rx="1" transform="rotate(-45 4.65076 6.77208)" fill="#FCBF5F"/>
<rect x="39" y="18" width="3" height="8" rx="1" transform="rotate(90 39 18)" fill="#FCBF5F"/>
<rect x="32.2279" y="4.65076" width="3" height="8" rx="1" transform="rotate(45 32.2279 4.65076)" fill="#FCBF5F"/>
<rect x="18" y="31" width="3" height="8" rx="1" fill="#FCBF5F"/>
<rect x="26.5711" y="28.6924" width="3" height="8" rx="1" transform="rotate(-45 26.5711 28.6924)" fill="#FCBF5F"/>
<rect x="8" y="18" width="3" height="8" rx="1" transform="rotate(90 8 18)" fill="#FCBF5F"/>
<rect x="10.3076" y="26.5711" width="3" height="8" rx="1" transform="rotate(45 10.3076 26.5711)" fill="#FCBF5F"/>
</svg>
