<svg width="100" height="100" viewBox="0 0 100 100" fill="none" xmlns="http://www.w3.org/2000/svg">
<circle cx="50" cy="50" r="26" stroke="#FCBF5F" stroke-width="8"/>
<rect x="46" width="8" height="17" rx="3" fill="#FCBF5F"/>
<rect x="100" y="46" width="8" height="17" rx="3" transform="rotate(90 100 46)" fill="#FCBF5F"/>
<rect x="82.5269" y="11.8162" width="8" height="17" rx="3" transform="rotate(45 82.5269 11.8162)" fill="#FCBF5F"/>
<rect x="11.8162" y="17.4731" width="8" height="17" rx="3" transform="rotate(-45 11.8162 17.4731)" fill="#FCBF5F"/>
<rect x="46" y="83" width="8" height="17" rx="3" fill="#FCBF5F"/>
<rect x="17" y="46" width="8" height="17" rx="3" transform="rotate(90 17 46)" fill="#FCBF5F"/>
<rect x="23.8371" y="70.5061" width="8" height="17" rx="3" transform="rotate(45 23.8371 70.5061)" fill="#FCBF5F"/>
<rect x="70.5061" y="76.1629" width="8" height="17" rx="3" transform="rotate(-45 70.5061 76.1629)" fill="#FCBF5F"/>
</svg>
