<svg width="55" height="47" viewBox="0 0 55 47" fill="none" xmlns="http://www.w3.org/2000/svg">
<path d="M0 38.5H13C17.5 38.5 16.5 48.5 8 44.5" stroke="#FCBF5F" stroke-width="3"/>
<path d="M0 32.5H23C28 32.5 27.5 23 18.5 27" stroke="#FCBF5F" stroke-width="3"/>
<path d="M27.716 15.5C37.216 4.5 48.716 19.5 39.716 25.5" stroke="#FCBF5F" stroke-width="3"/>
<rect x="33.216" width="3" height="8" rx="1" fill="#FCBF5F"/>
<rect x="19.8668" y="6.77208" width="3" height="8" rx="1" transform="rotate(-45 19.8668 6.77208)" fill="#FCBF5F"/>
<rect x="54.216" y="18" width="3" height="8" rx="1" transform="rotate(90 54.216 18)" fill="#FCBF5F"/>
<rect x="47.4439" y="4.65076" width="3" height="8" rx="1" transform="rotate(45 47.4439 4.65076)" fill="#FCBF5F"/>
<rect x="41.7871" y="28.6924" width="3" height="8" rx="1" transform="rotate(-45 41.7871 28.6924)" fill="#FCBF5F"/>
<path d="M5.99998 28.5C5.99999 25 9.5 22.5 12.2159 22C14.2159 11 29.2159 11 30.7159 22.5C42.7159 21.5 47.5 39.5 25 38" stroke="#FCBF5F" stroke-width="3"/>
</svg>
